<svg width="114" height="17" viewBox="0 0 114 17" fill="none" xmlns="http://www.w3.org/2000/svg">
<path d="M32.002 0L34.128 6.494H41.005L35.441 10.506L37.566 17L32.002 12.987L26.438 17L28.564 10.506L23 6.494H29.878L32.002 0Z" fill="#81B3D2"/>
<path d="M9.002 0L11.128 6.494H18.005L12.441 10.506L14.566 17L9.002 12.987L3.438 17L5.564 10.506L0 6.494H6.878L9.002 0Z" fill="#81B3D2"/>
<path d="M56.002 0L58.128 6.494H65.005L59.441 10.506L61.566 17L56.002 12.987L50.438 17L52.564 10.506L47 6.494H53.878L56.002 0Z" fill="#81B3D2"/>
<path d="M81.002 0L83.128 6.494H90.005L84.441 10.506L86.566 17L81.002 12.987L75.438 17L77.564 10.506L72 6.494H78.878L81.002 0Z" fill="#81B3D2"/>
<path d="M104.002 0L106.128 6.494H113.005L107.441 10.506L109.566 17L104.002 12.987L98.438 17L100.564 10.506L95 6.494H101.878L104.002 0Z" fill="#81B3D2"/>
</svg>
